<?xml version="1.0" encoding="utf-8"?>
<!-- Generator: Adobe Illustrator 28.2.0, SVG Export Plug-In . SVG Version: 6.00 Build 0)  -->
<svg version="1.1" id="Layer_1" xmlns="http://www.w3.org/2000/svg" xmlns:xlink="http://www.w3.org/1999/xlink" x="0px" y="0px"
	 viewBox="0 0 1080 343.12" style="enable-background:new 0 0 1080 343.12;" xml:space="preserve">
<style type="text/css">
	.st0{fill:#242528;}
	.st1{fill:#ACB1B6;}
	.st2{clip-path:url(#SVGID_00000125566035491206579070000012553796484579613859_);fill:#BCC2CD;}
	.st3{clip-path:url(#SVGID_00000041990476444390977440000006864252045529359531_);fill:#FFFFFF;}
	.st4{clip-path:url(#SVGID_00000083798309356719035380000012326505104573418383_);fill:#FFFFFF;}
	.st5{clip-path:url(#SVGID_00000165913721793608863280000017314048772284038548_);fill:#FFFFFF;}
	.st6{clip-path:url(#SVGID_00000047748853890829356210000008237822760824709300_);fill:#FFFFFF;}
	.st7{clip-path:url(#SVGID_00000156545731893837496700000005183482615002230700_);fill:#FFFFFF;}
	.st8{clip-path:url(#SVGID_00000075846782554445110240000001843591407260230569_);fill:#FFFFFF;}
	.st9{clip-path:url(#SVGID_00000170253424109768807850000014903488837047261868_);fill:#FFFFFF;}
	.st10{clip-path:url(#SVGID_00000154389631466164575060000012300991167272065951_);fill:#D2D9E4;}
	.st11{clip-path:url(#SVGID_00000139287234278165276060000013357255843295181184_);fill:#D2D9E4;}
	.st12{clip-path:url(#SVGID_00000167372853204403437240000002147886179473109399_);fill:#D2D9E4;}
	.st13{clip-path:url(#SVGID_00000138563215950627767770000008297568888763251890_);fill:#D2D9E4;}
	.st14{clip-path:url(#SVGID_00000034047575516650618160000005526140027579959455_);fill:#D2D9E4;}
	.st15{fill:#A9AFBA;}
	.st16{fill:#BCC2CD;}
	.st17{fill:#D2D9E4;}
	.st18{fill:#D4D7DA;}
</style>
<rect x="-95.88" y="-89.59" class="st0" width="3546.53" height="1013.65"/>
<g id="b">
	<path class="st1" d="M393.03,176.82c-3.6,14.69-16.38,24.42-31.39,24.42c-19.47,0-32.74-15.52-32.74-32.32
		c0-15.86,12.26-32.15,32.56-32.15c20.3,0,29.89,15.03,31.56,24.77h-16.63c-1.77-4.61-6.47-10.84-15.03-10.84
		c-10.67,0-16.63,9.32-16.63,18.12c0,9.42,6.38,18.46,16.7,18.46s13.93-8.31,14.93-10.49h16.63L393.03,176.82z"/>
	<path class="st1" d="M404.76,145.6h30.26v12.21h-16.92v8.46h16.4v12.21h-16.4v9.34h16.92v12.21h-30.26V145.6
		C404.76,145.6,404.76,145.6,404.76,145.6z"/>
	<path class="st1" d="M447.27,145.6h11.99l21.04,34.23l0.15-0.15l-0.59-34.08h13.31v54.46h-12.06l-20.74-33.13l-0.15,0.07
		l0.37,33.03h-13.31L447.27,145.6C447.27,145.6,447.27,145.6,447.27,145.6z"/>
	<path class="st1" d="M513.36,157.84h-10.74v-12.21h35.33v12.21h-10.67v42.22h-13.9v-42.22H513.36z"/>
	<path class="st1" d="M560.51,172.99h4.93c8.17,0,9.12-5.15,9.12-7.8c0-4.93-3.6-7.36-8.97-7.36h-5.08V172.99L560.51,172.99z
		 M547.2,145.63h17.24c9.56,0,13.24,1.18,16.77,3.9c4.49,3.53,6.69,9.27,6.69,14.86c0,6.25-3.24,15.45-13.54,17.14l14.79,18.54
		h-15.89l-12.58-17.61h-0.15v17.61h-13.31V145.6l0,0L547.2,145.63z"/>
	<path class="st1" d="M598.91,145.6h30.26v12.21h-16.92v8.46h16.4v12.21h-16.4v9.34h16.92v12.21h-30.26V145.6L598.91,145.6z"/>
	<path class="st1" d="M703.76,176.82c-3.6,14.69-16.38,24.42-31.39,24.42c-19.47,0-32.74-15.52-32.74-32.32
		c0-15.86,12.26-32.15,32.56-32.15c20.3,0,29.89,15.03,31.56,24.77h-16.63c-1.77-4.61-6.47-10.84-15.03-10.84
		c-10.67,0-16.63,9.32-16.63,18.12c0,9.42,6.38,18.46,16.7,18.46c10.32,0,13.93-8.31,14.93-10.49h16.63L703.76,176.82z"/>
	<path class="st1" d="M742.04,188.88c9.86,0,14.64-8.97,14.64-15.96s-4.78-16.11-14.79-16.11s-14.86,8.24-14.86,15.89
		C727.03,181.09,732.7,188.88,742.04,188.88 M741.82,144.57c16.77,0,28.76,13.09,28.76,28.25s-11.92,28.25-28.86,28.25
		s-28.62-13.61-28.62-27.61c0-3.6,0.51-7.65,2.13-11.62c2.87-7.06,11.33-17.29,26.56-17.29"/>
	<path class="st1" d="M795.52,145.6v32.91c0,3.68,0.22,10.37,7.06,10.37c6.84,0,6.91-6.03,6.91-10.37V145.6h13.9v32.91
		c0,9.12-1.99,13.17-5.44,16.7c-3.53,3.6-8.46,5.89-15.23,5.89c-3.97,0-11.18-0.96-15.67-5.81c-4.49-4.93-5.44-8.75-5.44-16.77
		V145.6L795.52,145.6L795.52,145.6z"/>
	<path class="st1" d="M850.13,172.99h4.93c8.17,0,9.12-5.15,9.12-7.8c0-4.93-3.6-7.36-8.97-7.36h-5.08V172.99z M836.81,145.63h17.24
		c9.56,0,13.24,1.18,16.77,3.9c4.49,3.53,6.69,9.27,6.69,14.86c0,6.25-3.24,15.45-13.54,17.14l14.79,18.54h-15.89l-12.58-17.61
		h-0.15v17.61h-13.31V145.6l0,0L836.81,145.63z"/>
	<path class="st1" d="M896.91,157.84h-10.74v-12.21h35.33v12.21h-10.67v42.22h-13.9v-42.22H896.91z"/>
	<path class="st1" d="M273.57,181.45c-4.51,20.08-22.44,35.09-43.87,35.09c-24.84,0-44.97-20.13-44.97-44.97s20.13-45,44.97-45
		c21.53,0,39.5,15.1,43.92,35.29h12.58c-4.61-27.05-28.15-47.64-56.5-47.64c-31.68,0-57.35,25.67-57.35,57.33
		s25.67,57.35,57.35,57.35c28.3,0,51.79-20.5,56.47-47.45h-12.58H273.57z M244.85,181.45c-3.24,4.9-8.83,8.14-15.15,8.14
		c-10.03,0-18.15-8.14-18.15-18.17c0-10.03,8.14-18.17,18.15-18.17c6.55,0,12.24,3.46,15.45,8.61h13.58
		c-4.05-12.16-15.5-20.94-29.03-20.94c-16.89,0-30.6,13.71-30.6,30.6s13.71,30.63,30.6,30.63c13.44,0,24.82-8.66,28.93-20.7
		C258.64,181.45,244.85,181.45,244.85,181.45z M158.49,171.57c0-39.33,31.85-71.21,71.18-71.21s71.21,31.88,71.21,71.21
		s-31.88,71.18-71.21,71.18S158.49,210.9,158.49,171.57"/>
</g>
</svg>
