<?xml version="1.0" encoding="utf-8"?>
<!-- Generator: Adobe Illustrator 28.2.0, SVG Export Plug-In . SVG Version: 6.00 Build 0)  -->
<svg version="1.1" id="Layer_1" xmlns="http://www.w3.org/2000/svg" xmlns:xlink="http://www.w3.org/1999/xlink" x="0px" y="0px"
	 viewBox="0 0 1080 343.12" style="enable-background:new 0 0 1080 343.12;" xml:space="preserve">
<style type="text/css">
	.st0{fill:#242528;}
	.st1{fill:#ACB1B6;}
	.st2{clip-path:url(#SVGID_00000161615597533512787460000011358289334686901183_);fill:#BCC2CD;}
	.st3{clip-path:url(#SVGID_00000155141358923326673910000015113956162356293514_);fill:#FFFFFF;}
	.st4{clip-path:url(#SVGID_00000168803903290324066590000008347425761969006749_);fill:#FFFFFF;}
	.st5{clip-path:url(#SVGID_00000120557721135653921240000001621269358709286826_);fill:#FFFFFF;}
	.st6{clip-path:url(#SVGID_00000078742052275751858730000015575570250622268332_);fill:#FFFFFF;}
	.st7{clip-path:url(#SVGID_00000079456181265091308110000017449692636235111834_);fill:#FFFFFF;}
	.st8{clip-path:url(#SVGID_00000168800946311576367730000007206608052486173846_);fill:#FFFFFF;}
	.st9{clip-path:url(#SVGID_00000069358398429101654730000004847630318443465344_);fill:#FFFFFF;}
	.st10{clip-path:url(#SVGID_00000051357875917364541990000006604506520346574488_);fill:#D2D9E4;}
	.st11{clip-path:url(#SVGID_00000047035622263013814920000009739432266165511851_);fill:#D2D9E4;}
	.st12{clip-path:url(#SVGID_00000007430414388457511110000015545740885482226339_);fill:#D2D9E4;}
	.st13{clip-path:url(#SVGID_00000138559402247343058910000005048405568705291154_);fill:#D2D9E4;}
	.st14{clip-path:url(#SVGID_00000023986749492629644470000010655295807423588740_);fill:#D2D9E4;}
	.st15{fill:#A9AFBA;}
	.st16{fill:#BCC2CD;}
	.st17{fill:#D2D9E4;}
	.st18{fill:#D4D7DA;}
</style>
<rect x="-2428.12" y="-89.59" class="st0" width="3546.53" height="1013.65"/>
<g>
	<path class="st1" d="M196.75,159.67c0.47-1.42,0.95-2.83,1.41-4.25c3.92-11.97,16.06-17.46,29.38-13.05
		c-0.25,1.1-0.46,2.24-0.76,3.36c-0.28,1.01-0.66,1.99-1.09,3.24c-5.74-0.69-12.07-2-15.98,3.27c-2.43,3.28-4.06,7.86-4.26,11.95
		c-0.57,11.76,4.88,15.71,20.42,15.68c0.62,1.69,1.29,3.49,1.93,5.24c-11.28,5.46-24.76,0.1-29.2-11.32
		c-0.65-1.67-1.24-3.35-1.85-5.03C196.75,165.73,196.75,162.7,196.75,159.67z"/>
	<path class="st15" d="M602.67,196.14c-11.64,13.76-35.98,17.74-54.57,9.33c-17.3-7.83-29.79-27.55-27.94-46.56
		C550.94,164.32,577.89,177.63,602.67,196.14z"/>
	<path class="st16" d="M616.56,150.63c-3.6,0.76-7.25,1.52-11.32,2.38c-6.28-19.25-18.94-30.6-39.98-28.83
		c-16.93,1.43-27.15,12.01-32.33,28.25c-3.92-0.66-7.72-1.31-11.46-1.94c0.29-14.78,18.98-39.06,46.97-38.98
		C592.14,111.58,616.14,130.63,616.56,150.63z"/>
	<path class="st1" d="M446.47,164.1c-0.03,16.79-13.73,27.3-28.44,21.82c-10.78-4.02-16.28-17.54-12.3-30.23
		c3.49-11.15,14.14-17.08,25.4-14.16C440.55,143.97,446.49,152.71,446.47,164.1z M439.08,164.48c-1.1-3.49-1.62-7.18-3.33-10.21
		c-4.47-7.91-15.29-7.96-20.3-0.36c-3.83,5.81-3.63,15.81,0.45,21.43c5.01,6.91,15.59,6.59,19.77-0.87
		C437.3,171.54,437.9,168.05,439.08,164.48z"/>
	<path class="st1" d="M465.69,158.54c0,9.69,0,18.37,0,27.4c-2.61,0-4.76,0-7.2,0c0-14.85,0-29.57,0-44.29
		c0.4-0.32,0.8-0.64,1.2-0.96c8.71,9.07,17.41,18.15,27,28.14c0-9.77,0-18.28,0-27.01c2.76,0,4.99,0,7.58,0c0,14.81,0,29.71,0,45.88
		C484.03,178.5,475.92,168.17,465.69,158.54z"/>
	<path class="st1" d="M238.3,141.3c6.19,0.33,11.94,0.4,17.63,1c6.73,0.71,12.59,3.37,14.23,10.61c1.62,7.14,0.2,13.58-7.45,17.64
		c3.22,5.14,6.28,10.04,9.4,15.02c-7.07,1.75-7.8,1.48-11.29-3.98c-0.73-1.15-1.46-2.3-2.19-3.44c-4.12-6.41-4.12-6.41-12.53-4.79
		c0,4.02,0,8.17,0,12.63c-2.84,0-5.17,0-7.8,0C238.3,171.26,238.3,156.7,238.3,141.3z M246.25,165.98
		c5.75,0.06,11.84,1.31,15.2-4.37c1.3-2.19,0.84-6.25-0.28-8.81c-1.62-3.69-8.85-4.85-14.91-3.2
		C246.25,154.9,246.25,160.24,246.25,165.98z"/>
	<path class="st1" d="M320.65,184.11c0.85-2.33,1.55-4.26,2.27-6.24c4.26,0.7,8.26,1.37,12.26,2.02c0.75,0.12,1.53,0.32,2.26,0.22
		c3.49-0.47,7.94,0.23,8.77-4.6c0.78-4.54-3.21-5.63-6.42-6.94c-3.08-1.26-6.3-2.22-9.33-3.57c-6.35-2.84-9.16-7.86-8.14-14.11
		c0.9-5.5,4.66-8.93,11.68-9.39c5.78-0.37,11.63,0.22,18.19,0.41c-1.01,3.25-1.62,5.23-2.3,7.42c-3.24-0.41-6.32-0.95-9.43-1.14
		c-2.09-0.13-4.34-0.15-6.28,0.5c-1.5,0.51-3.53,2.02-3.69,3.28c-0.19,1.57,0.88,3.97,2.19,4.88c2.43,1.69,5.48,2.49,8.2,3.8
		c3.26,1.57,6.78,2.86,9.58,5.04c6.42,5.03,5.26,15.77-2.15,18.94C339.24,188.5,330.03,187.66,320.65,184.11z"/>
	<path class="st1" d="M311.34,179.4c0,2.62,0,4.39,0,6.54c-9.27,0-18.39,0-27.8,0c0-14.73,0-29.31,0-44.12c9.22,0,18.24,0,27.52,0
		c0,2.24,0,4.28,0,6.82c-6.36,0-12.66,0-19.37,0c0,4.12,0,7.75,0,11.9c5.07,0,10.01,0,15.09,0c0,2.54,0,4.57,0,6.94
		c-5.07,0-9.88,0-15.1,0c0,4.01,0,7.69,0,11.92C298,179.4,304.44,179.4,311.34,179.4z"/>
	<path class="st16" d="M609.51,77.84c-0.52,14.55-12.79,26.18-27.28,26.16c-4.16-0.01-5.32-1.89-5.12-5.58
		c0.79-14.77,12.59-26.27,27.22-26.47C608.66,71.9,609.68,73.06,609.51,77.84z"/>
	<path class="st1" d="M835.03,179.5c0,2.62,0,4.38,0,6.47c-9.24,0-18.26,0-27.68,0c0-14.62,0-29.19,0-44.08c8.97,0,17.98,0,27.27,0
		c0,2.2,0,4.24,0,6.78c-6.4,0-12.7,0-19.38,0c0,4.02,0,7.56,0,11.71c5.09,0,10.14,0,15.4,0c0,2.64,0,4.67,0,7.14
		c-5.12,0-10.08,0-15.4,0c0,4.1,0,7.77,0,11.97C821.81,179.5,828.24,179.5,835.03,179.5z"/>
	<path class="st1" d="M722,185.9c-4.68,0.87-8.65,1.23-10.19-4.48c-0.24-0.91-2.2-1.83-3.43-1.91c-3.62-0.25-7.29,0.09-10.92-0.14
		c-3.82-0.25-6.35,0.41-8,4.6c-0.66,1.69-4.65,2.08-7.12,3.06c-0.24-0.43-0.49-0.86-0.73-1.29c0.29-0.97,0.49-1.98,0.88-2.91
		c5.52-12.93,11.04-25.85,16.64-38.74c0.5-1.15,1.51-2.09,2.28-3.12c0.91,1.06,2.15,1.97,2.68,3.19
		c5.61,12.72,11.12,25.48,16.64,38.24C721.2,183.48,721.54,184.62,722,185.9z M708.44,173.11c-2.44-5.81-4.61-10.96-7.18-17.08
		c-2.53,6.31-4.6,11.49-6.84,17.08C699.34,173.11,703.4,173.11,708.44,173.11z"/>
	<path class="st17" d="M608.85,189.87c-10.15-6.3-19.77-12.27-30.01-18.62c12.55-5.93,25.46-9.72,39.37-12.19
		C618.8,170.86,615.36,180.79,608.85,189.87z"/>
	<path class="st1" d="M639.18,141.87c8.22-0.61,8.23-0.61,11.02,6c3.23,7.65,6.43,15.3,10.06,23.93c2.17-5.18,4.02-9.55,5.85-13.93
		c1.45-3.48,3.34-6.87,4.22-10.49c1.35-5.49,4.58-6.81,10.02-5.38c-2.42,5.76-4.83,11.56-7.3,17.33
		c-3.55,8.34-7.12,16.67-10.76,24.96c-0.43,0.99-1.32,1.86-2.21,2.51c-0.18,0.14-1.58-0.78-1.88-1.44
		C651.88,171.03,645.64,156.67,639.18,141.87z"/>
	<path class="st1" d="M863.85,162.26c3.06-5.5,6.02-10.07,8.22-14.97c2.19-4.88,5.26-7.07,11.18-5.15c-1,1.84-2.01,3.73-3.04,5.61
		c-1.6,2.91-3.02,5.94-4.84,8.71c-5.44,8.25-9.27,16.89-7.71,27.11c0.11,0.69-0.18,1.44-0.32,2.43c-2.39,0-4.58,0-7.04,0
		c-0.18-1.04-0.61-2.08-0.47-3.04c1.27-8.89-1.89-16.48-6.46-23.85c-3.39-5.47-6.18-11.31-9.32-17.16
		c8.13-0.88,8.13-0.88,11.66,5.52C858.29,152.18,860.89,156.88,863.85,162.26z"/>
	<path class="st1" d="M361.84,149c0-2.79,0-4.74,0-7.05c11.77,0,23.49,0,35.49,0c0,2.15,0,4.2,0,6.81c-4.44,0-8.76,0-13.66,0
		c0,12.71,0,24.88,0,37.24c-2.93,0-5.27,0-8.02,0c0-12.35,0-24.41,0-37.01C370.94,149,366.62,149,361.84,149z"/>
	<path class="st1" d="M777.47,141.79c0,12.61,0,24.94,0,37.76c6.83,0,13.12,0,19.7,0c0,2.38,0,4.25,0,6.44c-9.21,0-18.22,0-27.53,0
		c0-14.81,0-29.41,0-44.21C772.12,141.79,774.35,141.79,777.47,141.79z"/>
	<path class="st1" d="M739.76,179.63c7.15,0,13.33,0,19.84,0c0,2.17,0,4.04,0,6.31c-9.09,0-18.2,0-27.55,0c0-14.74,0-29.19,0-43.99
		c2.36,0,4.71,0,7.71,0C739.76,154.15,739.76,166.57,739.76,179.63z"/>
	<path class="st1" d="M447.51,247.06c1.52,5.75,3.04,11.5,4.56,17.25c0.31,0.07,0.62,0.14,0.93,0.21
		c1.47-5.84,2.94-11.69,4.41-17.53c0.56,0.15,1.12,0.31,1.67,0.46c-1.82,7.63-3.64,15.26-5.46,22.89c-0.58,0.04-1.16,0.08-1.75,0.12
		c-1.59-5.94-3.18-11.88-4.77-17.82c-0.29-0.08-0.57-0.15-0.86-0.23c-1.57,6-3.14,11.99-4.7,17.99c-0.55,0.01-1.11,0.03-1.66,0.04
		c-1.88-7.67-3.76-15.34-5.64-23c0.58-0.16,1.16-0.33,1.74-0.49c1.41,5.75,2.82,11.5,4.24,17.25c0.33,0.08,0.65,0.16,0.98,0.24
		c1.56-5.82,3.11-11.64,4.67-17.45C446.41,247.01,446.96,247.03,447.51,247.06z"/>
	<path class="st1" d="M467.06,250.88c0,6.39,0,12.77,0,19.16c-0.35,0-0.7,0.01-1.05,0.01c0-7.47,0-14.94,0-23.65
		c1.69,1.26,3.36,1.95,4.14,3.19c2.91,4.65,5.53,9.47,8.26,14.23c0.49-0.09,0.97-0.18,1.46-0.26c0-5.48,0-10.96,0-16.44
		c0.48,0.02,0.95,0.04,1.43,0.06c0,7.61,0,15.22,0,23.97C475.36,264.65,473.05,256.73,467.06,250.88z"/>
	<path class="st1" d="M687.25,264.08c0-5.58,0-11.16,0-16.74c0.37,0.01,0.74,0.01,1.11,0.02c0,7.55,0,15.09,0,22.64
		c-0.31,0.17-0.62,0.34-0.93,0.51c-3.83-6.59-7.66-13.19-11.48-19.78c-0.43,0.07-0.87,0.14-1.3,0.22c0,6.39,0,12.79,0,19.18
		c-0.46-0.01-0.92-0.03-1.38-0.04c0-7.53,0-15.07,0-22.96c5.23-0.19,5.14,4.74,7.1,7.41c2.22,3.01,3.84,6.46,5.71,9.72
		C686.46,264.2,686.86,264.14,687.25,264.08z"/>
	<path class="st1" d="M411.88,258.8c-0.01-8.5,3.65-12.63,10.46-11.82c0.3,0.04,0.61,0.03,0.9,0.1c5.17,1.17,8.07,8.66,6.22,16.03
		c-1.53,6.07-5.65,8.63-11.45,7.13C414.14,269.23,411.88,265.01,411.88,258.8z M427.78,259.29c-0.17-1.87-0.17-3.25-0.45-4.57
		c-0.75-3.58-2.6-6.23-6.66-6.14c-4.09,0.09-5.93,2.83-6.28,6.46c-0.27,2.82-0.28,5.76,0.23,8.53c0.56,3,2.47,5.13,5.93,5.27
		c3.42,0.13,5.42-1.66,6.35-4.71C427.41,262.42,427.55,260.59,427.78,259.29z"/>
	<path class="st1" d="M647.46,258.66c0.42-8.34,4.02-12.62,10.57-11.56c2.11,0.34,4.7,1.85,5.76,3.61
		c2.97,4.92,2.84,10.34,0.41,15.55c-1.51,3.25-4.3,4.24-7.81,4.19c-3.43-0.05-5.95-1.4-7.17-4.45
		C648.29,263.69,648.02,261.12,647.46,258.66z M663.65,259.76c-0.13-2.18-0.06-3.41-0.3-4.59c-0.7-3.48-2.15-6.45-6.29-6.58
		c-4.04-0.12-6.32,2.31-6.63,6.02c-0.27,3.37-0.35,7.03,0.74,10.12c0.64,1.81,3.7,3.71,5.75,3.8c1.81,0.08,4.21-1.94,5.45-3.67
		C663.5,263.32,663.41,260.89,663.65,259.76z"/>
	<path class="st1" d="M576.23,259.46c1.6,3.8,2.97,7.07,4.34,10.34c-0.26,0.21-0.52,0.41-0.78,0.62c-0.65-0.55-1.54-0.97-1.89-1.67
		c-1.15-2.28-1.77-4.91-3.26-6.9c-0.93-1.24-3.04-2-4.67-2.11c-0.67-0.04-1.95,2.13-2.15,3.41c-0.36,2.26-0.1,4.61-0.1,6.92
		c-0.48,0-0.95,0.01-1.43,0.01c0-7.43,0-14.87,0-22.39c6.14-1.66,12.28-0.66,13.76,2.64C581.86,254.37,579.88,257.23,576.23,259.46z
		 M567.78,253.3c-0.5,3.14,0.36,4.91,4.02,4.6c3.33-0.28,6.78-0.43,6.7-4.81c-0.08-4.22-3.55-4.06-6.62-4.32
		C568.33,248.45,567.24,250.11,567.78,253.3z"/>
	<path class="st1" d="M608.59,265.27c2.32,1.12,4.76,2.91,7.42,3.33c1.46,0.23,4.22-1.58,4.66-3.01c0.41-1.32-1.13-3.73-2.47-4.96
		c-1.37-1.25-3.54-1.62-5.34-2.4c-3.31-1.43-5.99-3.36-4.68-7.54c0.94-3.01,5.23-4.87,8.85-3.51c1.98,0.74,3.54,2.59,5.3,3.94
		c-0.37,0.42-0.74,0.84-1.12,1.26c-0.98-0.9-1.82-2.26-2.97-2.61c-1.9-0.58-4.06-0.85-6-0.54c-0.83,0.13-2.22,2.43-1.92,3.02
		c0.79,1.56,2.17,3.03,3.67,3.99c2.02,1.29,4.89,1.58,6.41,3.21c1.5,1.6,2.74,4.55,2.32,6.52c-0.37,1.72-3.04,3.77-5,4.19
		C612.01,271.39,608.52,268.96,608.59,265.27z"/>
	<path class="st1" d="M559.57,264.44c-1.66,1.89-3.1,5.04-5.02,5.36c-2.92,0.48-6.92-0.07-9.1-1.85c-4.34-3.55-4-14.36-0.18-18.5
		c2.71-2.94,6.21-3.45,9.53-1.8c1.8,0.89,2.88,3.23,4.28,4.91c-0.36,0.27-0.73,0.54-1.09,0.81c-0.29-0.01-0.79,0.06-0.84-0.06
		c-1.41-3.17-3.44-5.55-7.29-4.58c-3.69,0.93-4.74,4.14-5,7.35c-0.21,2.65-0.26,5.66,0.79,7.97c0.9,1.98,3.33,4.17,5.36,4.47
		c1.72,0.26,3.87-1.97,5.74-3.23c0.64-0.44,1-1.29,1.49-1.95C558.67,263.71,559.12,264.08,559.57,264.44z"/>
	<path class="st1" d="M601.78,248.79c-3.58,0-7.16,0-11.1,0c0,2.98,0,5.43,0,8.1c2.62,0.25,5.08,0.48,7.54,0.71
		c0.02,0.4,0.04,0.79,0.07,1.19c-2.49,0.25-4.98,0.5-7.43,0.74c-0.21,0.64-0.44,1.05-0.47,1.48c-0.64,7.72-0.63,7.72,7.17,7.73
		c1.55,0,3.09,0,4.64,0c-0.01,0.4-0.03,0.79-0.04,1.19c-4.35,0-8.71,0-13.37,0c0-7.53,0-14.98,0-22.52c4.54,0,8.77,0,12.99,0
		C601.77,247.88,601.77,248.34,601.78,248.79z"/>
	<path class="st1" d="M627.8,247.42c5.28,0,10.56,0,15.84,0c0.06,0.29,0.11,0.58,0.17,0.87c-2.17,0.28-4.34,0.57-7.14,0.94
		c0,7,0,13.94,0,20.89c-0.48,0.06-0.97,0.12-1.45,0.18c-0.24-1.26-0.65-2.51-0.68-3.78c-0.09-4.08-0.23-8.18,0.02-12.25
		c0.23-3.79-0.45-6.29-5.05-5.53c-0.54,0.09-1.14-0.21-1.71-0.34C627.81,248.07,627.81,247.75,627.8,247.42z"/>
	<path class="st1" d="M399.02,270.27c-0.17-1.3-0.47-2.6-0.49-3.91c-0.06-4.21-0.22-8.44,0.04-12.63c0.22-3.54-0.66-5.51-4.63-5.01
		c-0.59,0.07-1.24-0.34-1.75-1.28c5.16,0,10.32,0,15.63,0c-0.26,0.53-0.34,0.94-0.49,0.96c-6.54,1.16-6.54,1.15-6.54,8.28
		c0,4.46,0,8.92,0,13.38C400.19,270.13,399.61,270.2,399.02,270.27z"/>
	<path class="st1" d="M513.76,261.84c0.04,5.77-2.23,8.61-6.8,8.55c-4.2-0.06-6.64-3.16-6.6-8.41c0.03-5.08,2.73-8.52,6.7-8.56
		C511.15,253.37,513.73,256.62,513.76,261.84z M512.18,262.1c-0.5-3.2-0.69-6.61-4.9-7.05c-3.01-0.31-5.36,2.89-5.07,7.15
		c0.21,3.15,0.65,6.79,5,6.7C511.48,268.82,511.68,265.21,512.18,262.1z"/>
	<path class="st1" d="M525.51,247.49c-1.09,1.3-2.64,2.47-3.05,3.96c-0.2,0.71,1.75,2.02,2.67,3c-6.69,3.59-0.65,10.74-3.95,15.95
		c-2.38-5.17,1.4-11.34-2.34-15.83c0.56-1.6,0.82-3.78,1.99-5.27c1.08-1.37,3.12-1.98,4.74-2.93
		C525.55,246.75,525.53,247.12,525.51,247.49z"/>
</g>
</svg>
