<?xml version="1.0" encoding="utf-8"?>
<!-- Generator: Adobe Illustrator 28.2.0, SVG Export Plug-In . SVG Version: 6.00 Build 0)  -->
<svg version="1.1" id="Layer_1" xmlns="http://www.w3.org/2000/svg" xmlns:xlink="http://www.w3.org/1999/xlink" x="0px" y="0px"
	 viewBox="0 0 1080 343.12" style="enable-background:new 0 0 1080 343.12;" xml:space="preserve">
<style type="text/css">
	.st0{fill:#242528;}
	.st1{fill:#ACB1B6;}
	.st2{clip-path:url(#SVGID_00000052076336334586273500000015030134986905932672_);fill:#BCC2CD;}
	.st3{clip-path:url(#SVGID_00000037673897445884786830000009867236110231658664_);fill:#FFFFFF;}
	.st4{clip-path:url(#SVGID_00000162342220928771043610000009100457440726674617_);fill:#FFFFFF;}
	.st5{clip-path:url(#SVGID_00000174593652743063784240000010146640083796654230_);fill:#FFFFFF;}
	.st6{clip-path:url(#SVGID_00000110450982533248278140000017994556334304092597_);fill:#FFFFFF;}
	.st7{clip-path:url(#SVGID_00000015313196388393015870000009093535589999343520_);fill:#FFFFFF;}
	.st8{clip-path:url(#SVGID_00000061469498836106056670000010380748049596744083_);fill:#FFFFFF;}
	.st9{clip-path:url(#SVGID_00000168826845559617821450000003953110719545691057_);fill:#FFFFFF;}
	.st10{clip-path:url(#SVGID_00000069364440328829134230000013082446840812543369_);fill:#D2D9E4;}
	.st11{clip-path:url(#SVGID_00000133491668298569986160000006937170757372742799_);fill:#D2D9E4;}
	.st12{clip-path:url(#SVGID_00000167368376660497437460000014162616036308068773_);fill:#D2D9E4;}
	.st13{clip-path:url(#SVGID_00000057117367452138555750000009276943489441948093_);fill:#D2D9E4;}
	.st14{clip-path:url(#SVGID_00000021835717729069198810000008796838804618299573_);fill:#D2D9E4;}
	.st15{fill:#A9AFBA;}
	.st16{fill:#BCC2CD;}
	.st17{fill:#D2D9E4;}
	.st18{fill:#D4D7DA;}
</style>
<rect x="-1273.29" y="-89.59" class="st0" width="3546.53" height="1013.65"/>
<g>
	<g>
		<g>
			<defs>
				<rect id="SVGID_1_" x="279.03" y="78.03" width="497.85" height="187.05"/>
			</defs>
			<clipPath id="SVGID_00000057850489880297047360000014706873049341502609_">
				<use xlink:href="#SVGID_1_"  style="overflow:visible;"/>
			</clipPath>
			<path style="clip-path:url(#SVGID_00000057850489880297047360000014706873049341502609_);fill:#BCC2CD;" d="M776.88,171.44
				c0,51.68-111.42,93.41-248.93,93.41c-137.5,0.24-248.93-41.72-248.93-93.41c0-51.44,111.42-93.41,248.93-93.41
				S776.88,120,776.88,171.44"/>
		</g>
	</g>
	<g>
		<g>
			<defs>
				<rect id="SVGID_00000166652358982779685530000012699035168992517299_" x="279.03" y="78.03" width="497.85" height="187.05"/>
			</defs>
			<clipPath id="SVGID_00000082370819652314988400000010481225652265302678_">
				<use xlink:href="#SVGID_00000166652358982779685530000012699035168992517299_"  style="overflow:visible;"/>
			</clipPath>
			<path style="clip-path:url(#SVGID_00000082370819652314988400000010481225652265302678_);fill:#FFFFFF;" d="M326.68,199.89
				v-44.57c0-2.84-1.66-4.27-4.03-4.27c-2.37,0-4.74,1.66-7.35,3.56v45.04h-11.38v-57.13h10.67v5.69c4.74-4.27,7.11-6.88,12.56-6.88
				c5.69,0,7.59,2.13,9.96,6.88c5.45-5.46,8.53-6.88,12.8-6.88c7.11,0,10.67,4.5,10.67,12.09v46.47H349.2v-44.57
				c0-2.84-1.9-4.27-4.03-4.27c-2.37,0-4.74,1.66-7.11,3.56v45.04h-11.38C326.68,199.65,326.68,199.89,326.68,199.89z"/>
		</g>
	</g>
	<g>
		<g>
			<defs>
				<rect id="SVGID_00000080885184387770537570000013774249390185096587_" x="279.03" y="78.03" width="497.85" height="187.05"/>
			</defs>
			<clipPath id="SVGID_00000178184589807963990110000003605302511466515842_">
				<use xlink:href="#SVGID_00000080885184387770537570000013774249390185096587_"  style="overflow:visible;"/>
			</clipPath>
			<path style="clip-path:url(#SVGID_00000178184589807963990110000003605302511466515842_);fill:#FFFFFF;" d="M364.37,159.35
				c0.71-11.61,7.59-18.02,18.25-18.02c10.67,0,16.6,5.22,16.6,15.65v36.75c0,1.9,0.47,4.27,0.71,6.17h-10.91
				c0-1.66-0.47-3.08-0.71-4.5c-4.27,3.56-7.82,5.45-13.28,5.45c-7.82,0-11.62-5.45-11.62-13.04c0-12.56,7.82-19.44,24.18-26.08
				v-3.08c0-4.74-1.9-7.35-5.69-7.35c-5.22,0-6.4,3.32-6.4,8.06L364.37,159.35L364.37,159.35z M387.84,170.73
				c-10.43,6.16-12.8,10.19-12.8,15.17c0,3.8,1.9,5.22,5.22,5.22c3.08,0,5.69-2.37,7.59-5.45V170.73z"/>
		</g>
	</g>
	<g>
		<g>
			<defs>
				<rect id="SVGID_00000133522405433839681540000013933451657457231769_" x="279.03" y="78.03" width="497.85" height="187.05"/>
			</defs>
			<clipPath id="SVGID_00000065785327359184588690000002651783948871429260_">
				<use xlink:href="#SVGID_00000133522405433839681540000013933451657457231769_"  style="overflow:visible;"/>
			</clipPath>
			<path style="clip-path:url(#SVGID_00000065785327359184588690000002651783948871429260_);fill:#FFFFFF;" d="M402.07,152.24v-9.72
				h6.4v-15.41h11.38v15.41h7.59v9.72h-7.59v33.19c0,3.08,1.19,4.74,3.79,4.74h3.79v10.19c-1.42,0.47-2.84,0.71-5.69,0.71
				c-8.53,0-13.28-4.27-13.28-13.04v-35.8H402.07z"/>
		</g>
	</g>
	<g>
		<g>
			<defs>
				<rect id="SVGID_00000136377839395985308320000016976776262078028163_" x="279.03" y="78.03" width="497.85" height="187.05"/>
			</defs>
			<clipPath id="SVGID_00000121996014874883620270000008722418459135089565_">
				<use xlink:href="#SVGID_00000136377839395985308320000016976776262078028163_"  style="overflow:visible;"/>
			</clipPath>
			<path style="clip-path:url(#SVGID_00000121996014874883620270000008722418459135089565_);fill:#FFFFFF;" d="M426.25,152.24v-9.72
				h6.4v-15.41h11.38v15.41h7.59v9.72h-7.59v33.19c0,3.08,1.19,4.74,3.79,4.74h3.79v10.19c-1.42,0.47-2.84,0.71-5.69,0.71
				c-8.53,0-13.28-4.27-13.28-13.04v-35.8H426.25z"/>
		</g>
	</g>
	<g>
		<g>
			<defs>
				<rect id="SVGID_00000158734317999993236650000008125093872406222523_" x="279.03" y="78.03" width="497.85" height="187.05"/>
			</defs>
			<clipPath id="SVGID_00000170967201289464336000000002666015634062090127_">
				<use xlink:href="#SVGID_00000158734317999993236650000008125093872406222523_"  style="overflow:visible;"/>
			</clipPath>
			<path style="clip-path:url(#SVGID_00000170967201289464336000000002666015634062090127_);fill:#FFFFFF;" d="M455.65,159.35
				c0.71-11.61,7.59-18.02,18.25-18.02c10.67,0,16.6,5.22,16.6,15.65v36.75c0,1.9,0.47,4.27,0.71,6.17H480.3
				c0-1.66-0.47-3.08-0.71-4.5c-4.27,3.56-7.82,5.45-13.28,5.45c-7.82,0-11.62-5.45-11.62-13.04c0-12.56,7.82-19.44,24.18-26.08
				v-3.08c0-4.74-1.9-7.35-5.69-7.35c-5.22,0-6.4,3.32-6.4,8.06L455.65,159.35L455.65,159.35z M479.12,170.73
				c-10.43,6.16-12.8,10.19-12.8,15.17c0,3.8,1.9,5.22,5.22,5.22c3.08,0,5.69-2.37,7.59-5.45
				C479.12,185.66,479.12,170.73,479.12,170.73z"/>
		</g>
	</g>
	<g>
		<g>
			<defs>
				<rect id="SVGID_00000065067692678483503810000003415100554244547208_" x="279.03" y="78.03" width="497.85" height="187.05"/>
			</defs>
			<clipPath id="SVGID_00000095318065993872426740000018359671467199878045_">
				<use xlink:href="#SVGID_00000065067692678483503810000003415100554244547208_"  style="overflow:visible;"/>
			</clipPath>
			<path style="clip-path:url(#SVGID_00000095318065993872426740000018359671467199878045_);fill:#FFFFFF;" d="M518.47,199.89
				v-44.57c0-2.84-1.66-4.27-4.03-4.27s-4.74,1.66-7.35,3.56v45.04h-11.38v-57.13h10.91v5.69c4.74-4.27,7.11-6.88,12.56-6.88
				c5.69,0,7.59,2.13,9.96,6.88c5.45-5.46,8.53-6.88,12.56-6.88c7.11,0,10.67,4.5,10.67,12.09v46.47h-11.38v-44.57
				c0-2.84-1.9-4.27-4.03-4.27c-2.37,0-4.74,1.66-7.11,3.56v45.04h-11.38V199.89z"/>
		</g>
	</g>
	<g>
		<g>
			<defs>
				<rect id="SVGID_00000033337808974697365140000014180436393121860787_" x="279.03" y="78.03" width="497.85" height="187.05"/>
			</defs>
			<clipPath id="SVGID_00000000904238442922352720000000045081633669523847_">
				<use xlink:href="#SVGID_00000033337808974697365140000014180436393121860787_"  style="overflow:visible;"/>
			</clipPath>
			<path style="clip-path:url(#SVGID_00000000904238442922352720000000045081633669523847_);fill:#FFFFFF;" d="M581.06,142.52h11.38
				l-14.22,61.64c-2.37,10.43-7.11,13.75-15.41,13.75h-4.74v-9.72h2.84c5.69,0,7.58-3.32,7.58-9.25c0-2.37-0.47-4.74-1.19-7.59
				l-11.85-48.84h11.62l7.35,36.75h0.24L581.06,142.52z"/>
		</g>
	</g>
	<g>
		<g>
			<defs>
				<rect id="SVGID_00000119805242970687146100000008319155577328780203_" x="303.12" y="78.03" width="497.85" height="187.05"/>
			</defs>
			<clipPath id="SVGID_00000018214720693681440580000014623555320185475493_">
				<use xlink:href="#SVGID_00000119805242970687146100000008319155577328780203_"  style="overflow:visible;"/>
			</clipPath>
			<polygon style="clip-path:url(#SVGID_00000018214720693681440580000014623555320185475493_);fill:#D2D9E4;" points="
				624.35,142.52 624.35,167.41 640.48,167.41 640.48,142.52 646.4,142.52 646.4,199.89 640.48,199.89 640.48,172.63 624.35,172.63 
				624.35,199.89 618.67,199.89 618.67,142.52 			"/>
		</g>
	</g>
	<g>
		<g>
			<defs>
				<rect id="SVGID_00000006688082617800897040000002813210426540496517_" x="279.03" y="78.03" width="497.85" height="187.05"/>
			</defs>
			<clipPath id="SVGID_00000052105220246614634190000012884956368937260477_">
				<use xlink:href="#SVGID_00000006688082617800897040000002813210426540496517_"  style="overflow:visible;"/>
			</clipPath>
			<path style="clip-path:url(#SVGID_00000052105220246614634190000012884956368937260477_);fill:#D2D9E4;" d="M640.09,200.84
				c-9.24,0-15.41-8.06-15.41-29.63c0-21.34,6.17-29.63,15.41-29.63c9.25,0,15.41,8.06,15.41,29.63
				C655.5,192.54,649.33,200.84,640.09,200.84 M640.09,147.02c-5.22,0-9.48,4.74-9.48,24.18c0,19.44,4.27,24.18,9.48,24.18
				c5.22,0,9.48-4.74,9.48-24.18C649.57,151.76,645.54,147.02,640.09,147.02"/>
		</g>
	</g>
	<g>
		<g>
			<defs>
				<rect id="SVGID_00000030446791725397788350000008294433131021176717_" x="279.03" y="78.03" width="497.85" height="187.05"/>
			</defs>
			<clipPath id="SVGID_00000152234181933494819230000014575262706508403604_">
				<use xlink:href="#SVGID_00000030446791725397788350000008294433131021176717_"  style="overflow:visible;"/>
			</clipPath>
			<polygon style="clip-path:url(#SVGID_00000152234181933494819230000014575262706508403604_);fill:#D2D9E4;" points="
				668.06,142.52 677.78,185.9 677.78,185.9 687.03,142.52 696.51,142.52 696.51,199.89 691.06,199.89 691.06,147.26 690.82,147.26 
				679.44,199.89 675.65,199.89 664.27,147.26 664.27,147.26 664.27,199.89 658.82,199.89 658.82,142.52 			"/>
		</g>
	</g>
	<g>
		<g>
			<defs>
				<rect id="SVGID_00000178204152253041850510000014338800842641447869_" x="279.03" y="78.03" width="497.85" height="187.05"/>
			</defs>
			<clipPath id="SVGID_00000104676811807981204110000011114711515786755992_">
				<use xlink:href="#SVGID_00000178204152253041850510000014338800842641447869_"  style="overflow:visible;"/>
			</clipPath>
			<polygon style="clip-path:url(#SVGID_00000104676811807981204110000011114711515786755992_);fill:#D2D9E4;" points="
				726.15,142.52 726.15,147.73 707.18,147.73 707.18,167.41 721.17,167.41 721.17,172.63 707.18,172.63 707.18,194.67 
				727.09,194.67 727.09,199.89 701.25,199.89 701.25,142.52 			"/>
		</g>
	</g>
	<g>
		<g>
			<defs>
				<rect id="SVGID_00000016054409674575455300000008296936345720335550_" x="279.03" y="78.03" width="497.85" height="187.05"/>
			</defs>
			<clipPath id="SVGID_00000098943712519437467490000017955758115416898954_">
				<use xlink:href="#SVGID_00000016054409674575455300000008296936345720335550_"  style="overflow:visible;"/>
			</clipPath>
			<path style="clip-path:url(#SVGID_00000098943712519437467490000017955758115416898954_);fill:#D2D9E4;" d="M748.19,157.22
				c-0.47-5.93-2.61-10.43-8.3-10.43c-4.5,0-7.59,3.08-7.59,7.59c0,13.04,22.05,13.04,22.05,31.53c0,9.25-4.98,14.7-13.99,14.7
				c-8.53,0-13.75-6.64-13.75-16.12h5.45c0.24,6.87,3.08,10.91,9.01,10.91c4.98,0,8.06-3.32,8.06-9.48
				c0-13.04-22.05-14.46-22.05-31.06c0-8.06,5.22-13.28,13.28-13.28c7.83,0,13.04,5.69,13.51,15.65H748.19z"/>
		</g>
	</g>
</g>
</svg>
