<?xml version="1.0" encoding="utf-8"?>
<!-- Generator: Adobe Illustrator 28.2.0, SVG Export Plug-In . SVG Version: 6.00 Build 0)  -->
<svg version="1.1" id="Layer_1" xmlns="http://www.w3.org/2000/svg" xmlns:xlink="http://www.w3.org/1999/xlink" x="0px" y="0px"
	 viewBox="0 0 1080 343.12" style="enable-background:new 0 0 1080 343.12;" xml:space="preserve">
<style type="text/css">
	.st0{fill:#242528;}
	.st1{fill:#ACB1B6;}
	.st2{clip-path:url(#SVGID_00000047020866180997217740000010849356250666659476_);fill:#BCC2CD;}
	.st3{clip-path:url(#SVGID_00000096052646051953504850000000061437211550172852_);fill:#FFFFFF;}
	.st4{clip-path:url(#SVGID_00000095315840025254665590000001904866539770799264_);fill:#FFFFFF;}
	.st5{clip-path:url(#SVGID_00000080893088987285305220000009600435193589040299_);fill:#FFFFFF;}
	.st6{clip-path:url(#SVGID_00000178186437352078622990000016733817591619764913_);fill:#FFFFFF;}
	.st7{clip-path:url(#SVGID_00000181061868150866565880000011426748836961396867_);fill:#FFFFFF;}
	.st8{clip-path:url(#SVGID_00000085966497424173304540000012935528311037768578_);fill:#FFFFFF;}
	.st9{clip-path:url(#SVGID_00000167368671050143055290000017997159088357685646_);fill:#FFFFFF;}
	.st10{clip-path:url(#SVGID_00000093164472120764459350000010747605148061410454_);fill:#D2D9E4;}
	.st11{clip-path:url(#SVGID_00000036238873774789119020000017865269648968484753_);fill:#D2D9E4;}
	.st12{clip-path:url(#SVGID_00000152237267790944303240000004167765580233489057_);fill:#D2D9E4;}
	.st13{clip-path:url(#SVGID_00000145767648470830883370000013588841968226460851_);fill:#D2D9E4;}
	.st14{clip-path:url(#SVGID_00000133504733648540463160000006641484311398118830_);fill:#D2D9E4;}
	.st15{fill:#A9AFBA;}
	.st16{fill:#BCC2CD;}
	.st17{fill:#D2D9E4;}
	.st18{fill:#D4D7DA;}
</style>
<rect x="-1273.29" y="-515.24" class="st0" width="3546.53" height="1013.65"/>
<g>
	<g>
		<path class="st16" d="M622.11,168.71c-0.15-5.12-2.32-52.05-42.03-79.18C550.29,69.16,518.46,73,508.81,74.6
			c-13.24,2.2-37.88,9.06-57.56,31.37c-24.06,27.27-24.22,58.94-24.06,66.39c8.53-3.45,17.06-6.9,25.58-10.35
			c-2.89-0.96-5.79-1.93-8.68-2.89c5.08,0.05,10.15,0.1,15.23,0.15c3.35-1.47,6.7-2.94,10.05-4.42
			c-7.51-3.55-15.02-7.11-22.54-10.66c9.85,2.64,19.69,5.28,29.54,7.92c0.18-0.37,0.79-1.47,2.13-2.13c1.12-0.55,2.16-0.5,2.59-0.46
			c-9.24-6.09-18.48-12.18-27.71-18.27c11.83,5.08,23.65,10.15,35.48,15.23c-8.93-8.98-17.87-17.97-26.8-26.95
			c11.37,7.82,22.74,15.63,34.11,23.45c-8.17-11.32-16.34-22.64-24.52-33.96c10,9.9,20,19.8,30,29.69
			c-6.09-12.44-12.18-24.87-18.27-37.31c8.22,11.27,16.45,22.54,24.67,33.81c-4.01-13.65-8.02-27.31-12.03-40.96
			c6.04,12.44,12.08,24.87,18.12,37.31c-1.57-14.52-3.15-29.03-4.72-43.55c3.86,14.36,7.72,28.73,11.57,43.09
			c0.96-14.36,1.93-28.73,2.89-43.09c1.32,14.11,2.64,28.22,3.96,42.33c3.5-13.96,7-27.92,10.51-41.88
			c-1.02,14.16-2.03,28.32-3.05,42.49c5.69-12.99,11.37-25.99,17.06-38.98c-3.65,14.01-7.31,28.02-10.96,42.03
			c8.22-12.08,16.45-24.16,24.67-36.24c-4.42,9.95-8.83,19.9-13.25,29.85c3.6-2.39,7.21-4.77,10.81-7.16
			c4.26-4.57,8.53-9.14,12.79-13.71c-3.71,5.79-7.41,11.57-11.12,17.36c1.03,0.61,2.17,1.36,3.35,2.28
			c0.99,0.78,1.85,1.55,2.59,2.28c5.84-4.52,11.67-9.04,17.51-13.55c-5.13,5.23-10.25,10.46-15.38,15.68
			c2.08,1.68,4.16,3.35,6.24,5.03c5.63-2.79,11.27-5.58,16.9-8.38c-4.72,3.4-9.44,6.8-14.16,10.2c2.49,1.98,4.97,3.96,7.46,5.94
			c5.08-1.47,10.15-2.94,15.23-4.42c-4.16,2.23-8.32,4.47-12.49,6.7c2.43,1.37,5.08,3.11,7.77,5.33c0.98,0.81,1.9,1.63,2.74,2.44
			c1.42-0.05,2.84-0.1,4.26-0.15c-0.71,0.71-1.42,1.42-2.13,2.13C610.84,159.98,616.48,164.34,622.11,168.71z"/>
		<path class="st17" d="M559.14,131.62c-16.52,11.12-33.05,22.24-49.56,33.36c1.61,3.51,3.2,7,4.8,10.51
			c-4.57-4.04-9.14-8.08-13.71-12.12c-0.16-1.51-0.31-3.04-0.47-4.57c-1.9-1.75-3.81-3.49-5.71-5.24c-1.66,1.4-6.12,4.8-12.34,4.79
			c-1.85,0-3.47-0.3-4.79-0.69c-4.87,2.14-9.73,4.27-14.63,6.39c-11.69,5.1-23.34,10.12-34.95,15.08c0.17,3.75,0.58,7.9,1.37,12.34
			c1.75,9.75,4.82,17.82,7.77,23.98c1.53-0.8,3.79-1.9,6.63-2.96c15.55-5.84,29.72-3.43,42.26-1.15c20.84,3.79,29.8,5.82,42.25,8.23
			c37.03,7.12,47.74,6.43,52.77,5.93c13.63-1.35,24.39-5.15,31.06-7.99c2.17-4.98,4.36-10.87,6.16-17.59
			c2.3-8.57,3.4-16.34,3.88-22.85C601.02,161.94,580.08,146.78,559.14,131.62z M601.17,180.06c-8.75-2.55-11.9-6.14-18.73-8.45
			c-3.74-1.28-9.46-2.47-17.36-1.37c-0.61-4.34-1.22-8.69-1.83-13.02c-1.06-1-2.14-1.98-3.2-2.96c0.08-3.96,0.16-7.92,0.23-11.88
			c4.94,5.18,9.89,10.35,14.85,15.53c1.44-0.53,2.89-1.06,4.34-1.6c10.59,8.53,21.16,17.06,31.75,25.59
			C608.92,181.7,605.35,181.28,601.17,180.06z"/>
		<path class="st15" d="M603.68,228.71c-4.67,6.54-22.7,30.13-56.19,38.37c-7.95,1.96-34.2,7.33-62.36-5.48
			c-11.54-5.25-19.85-11.95-25.13-16.9c6.77-1.34,17.4-2.89,30.38-2.28c16.71,0.78,24.11,4.52,39.29,5.94
			c9.12,0.85,22.67,1.01,39.74-2.97c-20.67,1.17-36.81-0.88-47.74-2.97c-15.07-2.88-26.54-7.05-45-6.62
			c-9.67,0.22-17.54,1.62-22.61,2.74c-1.93-1.92-3.94-4.12-5.94-6.62c-0.15-0.18-0.29-0.37-0.43-0.55
			c-2.02-2.59-2.04-6.31,0.15-8.76c0.02-0.02,0.03-0.04,0.05-0.06c4.58-5.01,14.14-4.2,20.3-3.94c16.21,0.68,32.13,3.54,47.99,6.79
			c3.21,0.66,6.39,1.07,9.6,1.72c22.13,4.56,33.4,6.84,43.17,6.85C583.67,233.98,595.72,231.15,603.68,228.71z"/>
	</g>
	<path class="st18" d="M261.56,117.5c-23-11.94-51.44-8.87-72.12,7.93c-2.46,0.6-6.41,1.27-11.25,0.67
		c-4.74-0.6-8.38-2.16-10.59-3.32c0.22,49.04,0.45,98.06,0.67,147.1h32.41V242.4c0-5.99,5.57-10.4,11.4-9.03
		c6.6,1.55,14.68,2.47,23.67,1.4c23.15-2.76,54.53-18.97,60.19-51.12C300.74,156.51,285.11,129.72,261.56,117.5z M232.22,204.69
		c-17.85,0-32.32-14.47-32.32-32.32c0-17.85,14.47-32.32,32.32-32.32c17.85,0,32.32,14.47,32.32,32.32
		C264.54,190.22,250.07,204.69,232.22,204.69z"/>
	<path class="st18" d="M329.71,233.94V120.77c1.84,2.45,4.78,5.51,8.93,6.32c6.54,1.27,10.92-4,20.51-9.26c0,0,12.36-6.79,26.8-8.6
		c5.95-0.75,15.49-1.04,27.46,2.65c-3.42,10.48-6.84,20.95-10.26,31.43c-2.67-0.88-13.26-4.01-25.14,0.99
		c-3.97,1.67-7.2,3.88-9.79,6.19c-5.84,5.21-9.07,12.74-9.07,20.56v62.24C349.34,233.5,339.52,233.72,329.71,233.94z"/>
	<path class="st18" d="M635.38,112.2c13.39,0,26.79,0,40.18,0c9.4,20.44,18.79,40.87,28.19,61.31c2.5,0,5,0,7.5,0
		c9.26-20.58,18.53-41.17,27.79-61.75c12.21,0,24.41,0,36.62,0c-19.12,40.87-38.23,81.75-57.35,122.62c-7.66,0-15.32,0-22.98,0
		C675.35,193.66,655.37,152.93,635.38,112.2z"/>
	<path class="st18" d="M851.08,111.76c-33.86,0-61.32,27.44-61.32,61.32c0,33.86,27.46,61.3,61.32,61.3s61.32-27.44,61.32-61.3
		C912.4,139.21,884.93,111.76,851.08,111.76z M851.08,204.69c-17.45,0-31.61-14.15-31.61-31.61c0-17.47,14.15-31.63,31.61-31.63
		s31.61,14.15,31.61,31.63C882.68,190.53,868.53,204.69,851.08,204.69z"/>
</g>
</svg>
