<?xml version="1.0" encoding="utf-8"?>
<!-- Generator: Adobe Illustrator 28.2.0, SVG Export Plug-In . SVG Version: 6.00 Build 0)  -->
<svg version="1.1" id="Layer_1" xmlns="http://www.w3.org/2000/svg" xmlns:xlink="http://www.w3.org/1999/xlink" x="0px" y="0px"
	 viewBox="0 0 1080 343.12" style="enable-background:new 0 0 1080 343.12;" xml:space="preserve">
<style type="text/css">
	.st0{fill:#242528;}
	.st1{fill:#ACB1B6;}
	.st2{clip-path:url(#SVGID_00000145741967216013668890000016132054916512127361_);fill:#BCC2CD;}
	.st3{clip-path:url(#SVGID_00000122690430964786473470000018046194279119330981_);fill:#FFFFFF;}
	.st4{clip-path:url(#SVGID_00000143607290407526196990000012623259839998055052_);fill:#FFFFFF;}
	.st5{clip-path:url(#SVGID_00000103945025822312116630000018091961710374378911_);fill:#FFFFFF;}
	.st6{clip-path:url(#SVGID_00000098925233460491817760000013839621492195752880_);fill:#FFFFFF;}
	.st7{clip-path:url(#SVGID_00000031922728164336739230000000041883421537069217_);fill:#FFFFFF;}
	.st8{clip-path:url(#SVGID_00000154397877494623800300000017050318898379154877_);fill:#FFFFFF;}
	.st9{clip-path:url(#SVGID_00000037687608270275479760000017625142416004792195_);fill:#FFFFFF;}
	.st10{clip-path:url(#SVGID_00000050625547490353018980000005226208162699360947_);fill:#D2D9E4;}
	.st11{clip-path:url(#SVGID_00000134967583103144291200000009210613017807797685_);fill:#D2D9E4;}
	.st12{clip-path:url(#SVGID_00000060027665001293977790000011880652944412903069_);fill:#D2D9E4;}
	.st13{clip-path:url(#SVGID_00000034771815419642293040000000702068626825549471_);fill:#D2D9E4;}
	.st14{clip-path:url(#SVGID_00000067923554004190404660000012393949039108638611_);fill:#D2D9E4;}
	.st15{fill:#A9AFBA;}
	.st16{fill:#BCC2CD;}
	.st17{fill:#D2D9E4;}
	.st18{fill:#D4D7DA;}
</style>
<rect x="-2428.12" y="-515.24" class="st0" width="3546.53" height="1013.65"/>
<g>
	<path class="st1" d="M308.33,193.27c-7.22,0.71-14.31-0.9-20.97-3.71c-5.84-2.46-11.81-4.78-16.76-9.2
		c-4.35-3.87-8.49-7.82-11.39-12.84c-1.62-2.8-2.72-5.9-4.06-8.86c-2.44-5.39-3.13-11.17-3.64-16.96c-0.19-2.13-0.11-4.31,0.14-6.44
		c0.56-4.66,0.76-9.39,2.46-13.87c2.55-6.73,5.33-13.31,10.53-18.52c2.72-2.73,5.36-5.56,8.25-8.1c4.23-3.72,9.31-6.09,14.51-8.04
		c3.5-1.31,7.2-2.08,10.82-3.03c5.72-1.5,11.57-1.45,17.33-0.72c8.39,1.06,16.36,3.44,23.84,7.72
		c10.47,5.99,17.81,14.66,22.89,25.33c2.96,6.2,4.37,12.94,4.44,19.82c0.04,4.69-0.17,9.45-0.96,14.06
		c-1.06,6.18-3.42,11.96-6.69,17.41c-4.02,6.69-9.56,11.78-15.75,16.31c-0.2,0.15-0.4,0.31-0.63,0.41
		c-6.93,3.1-13.57,6.84-21.23,8.17C317.15,192.96,312.87,193.59,308.33,193.27z M342.87,138.33c0.2-8.94-3.56-16.65-10.06-23.18
		c-6.51-6.54-14.37-10.19-23.64-10.1c-3.71,0.04-7.64,0.34-11.07,1.6c-5.41,2-10.08,5.39-14,9.83c-3.17,3.59-5.9,7.41-7.28,11.95
		c-1.96,6.44-2.13,13.02-0.25,19.56c0.25,0.86,0.66,1.67,0.97,2.51c1.25,3.36,3.56,6.02,5.83,8.68c5.37,6.3,11.78,10.87,20.24,12.1
		c5.94,0.87,11.76,0.43,17.31-1.67c7.84-2.97,13.39-8.85,17.91-15.66C341.85,149.42,342.96,144.22,342.87,138.33z"/>
	<path class="st1" d="M386.99,134.26c0-16.79,0-33.58,0-50.36c0-1.52-0.1-3.16,1.56-3.92c1.73-0.79,3.08,0.17,4.29,1.32
		c7.08,6.72,14.14,13.47,21.25,20.16c5.51,5.18,11.05,10.31,16.62,15.41c4.02,3.68,8.23,7.17,12.13,10.97
		c5.52,5.38,10.81,10.99,16.25,16.45c1.26,1.27,2.68,2.42,4.17,3.42c1.91,1.28,3.33,0.61,3.51-1.66c0.15-1.94,0.01-3.89-0.02-5.84
		c-0.13-9.07-0.24-18.14-0.42-27.2c-0.14-7.41-0.27-14.83-0.61-22.23c-0.19-4.06,2.08-5.12,4.92-5.06c4.86,0.1,9.71,0.32,14.56,0.63
		c2.81,0.18,3.75,1.4,3.74,4.17c-0.1,32.37-0.18,64.74-0.26,97.11c0,1.45,0.12,2.91-0.02,4.34c-0.19,1.82-1.61,2.56-3.12,1.52
		c-1.72-1.19-3.25-2.66-4.85-4.02c-4.41-3.76-8.85-7.49-13.22-11.29c-2.91-2.53-5.7-5.18-8.56-7.77
		c-5.01-4.53-9.96-9.14-15.09-13.54c-3.18-2.73-6.78-4.99-9.96-7.73c-4.89-4.22-9.58-8.65-14.34-13.02
		c-1.96-1.79-3.82-3.69-5.83-5.42c-0.61-0.52-1.64-0.99-2.33-0.83c-0.45,0.1-0.82,1.38-0.87,2.15c-0.13,1.85-0.04,3.71-0.05,5.56
		c0,15.69-0.01,31.37-0.01,47.06c0,0.5,0,1-0.05,1.5c-0.29,2.64-1.83,4.31-4.47,4.39c-4.76,0.13-9.52,0.15-14.28,0.02
		c-2.97-0.08-4.51-1.86-4.61-4.86c-0.05-1.35,0-2.71,0-4.06c0-15.79,0-31.57,0-47.36C387.01,134.26,387,134.26,386.99,134.26z"/>
	<path class="st1" d="M861.17,86.52c4.51,0,9.02,0.06,13.53-0.01c6.23-0.11,12.28,0.84,18.14,2.93
		c12.15,4.33,21.66,11.87,28.11,23.17c2.7,4.73,5.13,9.59,5.95,14.99c1.24,8.11,1.66,16.33-0.75,24.29
		c-2.91,9.62-7.81,18.23-15.66,24.65c-4.88,3.99-10.08,7.77-16.58,9.07c-4.36,0.87-8.61,2.39-12.99,3.04
		c-4.34,0.64-8.78,0.69-13.18,0.76c-7.51,0.11-15.03,0.05-22.55,0.03c-4.13-0.01-5.24-1.19-5.24-5.31c0-31.22-0.01-62.43-0.02-93.65
		c0-2.71,1.02-3.88,3.79-3.91c5.81-0.06,11.62-0.02,17.44-0.02C861.17,86.54,861.17,86.53,861.17,86.52z M861.29,137.87
		C861.29,137.87,861.29,137.87,861.29,137.87c0.01,9.72-0.01,19.44,0.02,29.17c0.01,4.18,1.4,5.67,5.53,5.45
		c5.79-0.31,11.63-0.47,17.13-2.73c7.98-3.27,14.15-8.56,18.33-16.16c3.67-6.66,3.85-13.9,2.93-21.09
		c-1-7.85-4.62-14.55-10.89-19.61c-4.95-3.99-10.4-7.06-16.8-7.83c-3.86-0.47-7.79-0.44-11.7-0.5c-3.56-0.05-4.56,1.03-4.56,4.58
		C861.29,118.73,861.29,128.3,861.29,137.87z"/>
	<path class="st1" d="M667.82,195.4c-3.41-0.5-6.83-0.92-10.22-1.54c-1.96-0.36-3.67-0.2-5.2,1.14c-2.34,2.03-4.6,4.2-7.11,6
		c-1.26,0.91-3,1.56-4.54,1.6c-6.26,0.18-12.52,0.09-18.79,0.08c-0.45,0-0.91-0.01-1.34-0.12c-1.62-0.38-2.16-1.83-1.08-3.07
		c0.71-0.82,1.54-1.61,2.45-2.19c4.72-3.01,8.77-6.81,12.75-10.7c2.75-2.69,5.7-5.19,8.26-8.04c2.6-2.89,4.97-6.02,7.19-9.22
		c2.14-3.08,3.99-6.36,5.92-9.59c2.88-4.81,5.88-9.55,8.53-14.49c4.08-7.62,6.57-15.89,9.31-24.06c2.69-8.02,4.24-16.28,5.74-24.55
		c0.78-4.32,0.88-8.76,1.37-13.14c0.28-2.51,1.65-3.58,4.03-2.81c4.68,1.51,9.28,3.27,13.06,6.56c0.73,0.64,1.4,1.68,1.52,2.62
		c0.29,2.24,1.52,3.73,3.13,5.09c5.8,4.92,10.94,10.4,14.71,17.09c4.81,8.53,7.01,17.8,7.33,27.45c0.14,4.1-0.56,8.33-1.56,12.33
		c-1.72,6.91-4.26,13.59-8.4,19.49c-3.3,4.71-7.21,9-12.03,12.07c-9.71,6.2-20.15,10.69-31.84,11.62c-0.55,0.04-1.1,0.04-1.65,0.05
		c-0.5,0.01-1,0-1.5,0C667.85,195.19,667.83,195.3,667.82,195.4z M705.19,140.31c0.34-8.13-2.65-15.07-6.55-21.72
		c-0.61-1.03-1.43-2.09-2.85-1.84c-1.37,0.24-1.6,1.5-1.89,2.62c-1.04,3.97-1.97,7.98-3.16,11.91c-3.62,12-8.77,23.32-15.47,33.92
		c-1.47,2.33-2.94,4.67-4.21,7.11c-1.16,2.23-0.19,3.61,2.31,3.57c0.35-0.01,0.7-0.02,1.05-0.08c4.66-0.78,8.99-2.51,12.98-4.95
		c4.82-2.95,8.43-7.19,11.64-11.79C703.03,153.36,705.56,147.21,705.19,140.31z"/>
	<path class="st1" d="M746.08,137.66c0-15.78,0-31.57,0-47.35c0-2.3,1.08-3.51,3.4-3.73c0.9-0.08,1.8-0.07,2.7-0.07
		c9.22-0.01,18.44,0.04,27.66-0.02c7.76-0.05,15,1.8,21.55,5.97c4.96,3.16,8.33,7.68,10.02,13.27c0.89,2.94,1.45,6.03,1.72,9.09
		c0.49,5.7-0.24,11.24-2.54,16.6c-3.04,7.09-8.35,11.65-15.34,14.36c-3.9,1.51-4.19,2.39-1.68,5.67
		c5.72,7.47,11.26,15.09,16.98,22.55c2.8,3.65,5.86,7.09,8.81,10.62c0.35,0.42,0.8,0.77,1.12,1.21c0.96,1.36,0.48,2.86-1.12,3.32
		c-0.76,0.22-1.58,0.26-2.38,0.26c-5.41,0.02-10.82-0.01-16.23,0.02c-2.44,0.01-4.27-0.98-5.82-2.86
		c-6.61-8.02-11.98-16.9-17.86-25.42c-2.08-3.01-4.15-6.02-6.25-9.01c-0.28-0.41-0.61-0.88-1.03-1.08
		c-0.68-0.31-1.58-0.74-2.16-0.52c-0.59,0.22-1.01,1.12-1.32,1.81c-0.21,0.47-0.09,1.09-0.09,1.64c0.02,10.27,0.05,20.54,0.06,30.81
		c0.01,3.43-1.18,4.62-4.59,4.63c-3.61,0.01-7.22,0.02-10.82-0.02c-3.46-0.03-4.79-1.43-4.79-4.87c0-15.63,0-31.27,0-46.9
		C746.09,137.66,746.09,137.66,746.08,137.66z M766.23,118c0.02,0,0.04,0,0.05,0c0,3.66-0.05,7.32,0.01,10.97
		c0.07,3.98,1.27,5.29,5.17,5.04c3.47-0.22,6.95-0.77,10.35-1.53c5.74-1.28,9.66-5.78,10.47-11.62c1.15-8.25-4.04-15.77-12.02-16.73
		c-3.13-0.38-6.26-0.75-9.41-0.98c-3.05-0.22-4.64,1.41-4.63,4.48C766.25,111.09,766.23,114.54,766.23,118z"/>
	<path class="st1" d="M235.78,102.25c0,3.01,0.05,6.01-0.01,9.02c-0.06,2.9-1.27,3.58-3.84,2.21c-0.7-0.37-1.41-0.79-2.02-1.29
		c-8.51-6.92-18.29-8.53-28.77-6.57c-7.42,1.39-13.11,5.75-17.82,11.47c-3.11,3.77-5.33,8.05-6.5,12.76
		c-1.66,6.62-1.85,13.27,0.62,19.8c2.59,6.85,6.98,12.35,12.84,16.63c4.71,3.44,10.03,5.37,15.95,5.41
		c4.36,0.02,8.72,0.16,12.94-1.3c3.82-1.32,7.32-3.21,10.52-5.69c0.86-0.67,1.81-1.29,2.82-1.67c1.58-0.61,2.75,0.1,3.11,1.79
		c0.17,0.77,0.18,1.59,0.18,2.39c0.01,4.91-0.07,9.82,0.03,14.73c0.05,2.72-1.15,4.5-3.51,5.58c-5.14,2.35-10.58,3.65-16.13,4.56
		c-9.95,1.62-19.6,0.3-28.94-3.18c-6.63-2.47-12.95-5.67-18.22-10.49c-4.47-4.08-8.05-8.9-10.91-14.26
		c-6.57-12.32-7.21-25.32-4.54-38.72c1.87-9.35,6.83-17.01,13.05-23.97c3.75-4.19,7.94-7.78,12.95-10.58
		c4.52-2.52,9.24-4.35,14.13-5.81c2.61-0.78,5.4-1.12,8.14-1.32c8.18-0.62,16.33-0.57,24.22,2.19c2.03,0.71,4.11,1.31,6.09,2.14
		c2.5,1.04,3.81,2.9,3.69,5.76c-0.13,2.8-0.03,5.61-0.03,8.42C235.8,102.25,235.79,102.25,235.78,102.25z"/>
	<path class="st1" d="M592.4,101.84c0,2.81,0.08,5.62-0.05,8.42c-0.04,0.86-0.43,2.23-0.99,2.43c-0.81,0.28-2.05-0.07-2.87-0.56
		c-2.57-1.55-4.95-3.42-7.54-4.92c-5.68-3.27-11.97-3.39-18.26-3.04c-9.81,0.55-17.23,5.47-23.28,12.92
		c-7.65,9.42-9.23,20.16-6.18,31.45c2.21,8.2,7.55,14.58,14.66,19.36c9.29,6.25,19.39,6.12,29.59,3.33
		c3.13-0.86,5.88-3.13,8.78-4.81c0.95-0.55,1.77-1.33,2.72-1.88c1.56-0.9,2.9-0.28,3.27,1.49c0.15,0.73,0.16,1.49,0.17,2.24
		c0.01,4.36,0.01,8.72,0.01,13.08c0,3.08-0.79,4.43-3.71,5.47c-5.57,1.97-11.2,3.74-17.14,4.38c-10.72,1.16-20.81-0.79-30.78-4.93
		c-9.53-3.96-16.87-10.38-22.31-18.73c-6.52-10.01-9.45-21.21-8.27-33.34c0.79-8.12,3.01-15.77,7.11-22.77
		c4.27-7.3,9.87-13.61,17.02-18.15c8.92-5.67,18.64-9.29,29.47-8.91c4.4,0.15,8.89-0.09,13.16,0.74c4.47,0.87,8.75,2.74,13.05,4.32
		c1.63,0.6,2.41,2.03,2.4,3.83C592.39,96.13,592.4,98.98,592.4,101.84C592.4,101.84,592.4,101.84,592.4,101.84z"/>
	<path class="st1" d="M608.63,141.95c0.17-8.54,1.23-15.83,4.26-22.64c1.93-4.34,3.98-8.74,6.75-12.54
		c2.83-3.88,6.45-7.24,10.04-10.49c5.16-4.67,11.54-7.25,17.97-9.72c5.75-2.21,11.77-2.93,17.8-3.38c2.96-0.22,6.05,0.56,9.01,1.19
		c1.77,0.38,2.36,1.53,2.14,3.3c-0.55,4.47-1.12,8.94-1.81,13.39c-0.46,2.94-1.76,3.87-4.76,3.84c-2.15-0.02-4.3-0.14-6.44-0.01
		c-7.87,0.49-14.44,3.83-20.3,9.02c-4.68,4.13-8.42,8.82-10.62,14.68c-2.07,5.53-2.38,11.21-1.66,17.02
		c0.68,5.52,3.24,10.18,6.54,14.47c1.67,2.17,3.59,4.15,5.49,6.13c1.82,1.9,2.09,4.39,0.31,6.31c-2.95,3.19-5.98,6.32-9.05,9.39
		c-1.56,1.56-3.53,1.69-5.16,0.37c-4.46-3.6-8.58-7.54-11.55-12.53c-3.79-6.37-6.81-13.07-8.15-20.41
		C608.94,146.56,608.81,143.69,608.63,141.95z"/>
	<path class="st1" d="M299.75,244.6c0-3.81-0.04-7.62,0.01-11.42c0.04-2.89,1.28-4.44,4.16-4.48c6.96-0.11,13.93-0.15,20.87,0.19
		c3.04,0.15,6.16,0.92,8.71,2.96c2.32,1.85,4.22,4.07,5,6.97c1.33,4.94-1.75,10.75-6.8,12.19c-3.53,1-7.25,1.37-10.91,1.82
		c-1.87,0.23-3.81-0.03-5.71,0.06c-1.95,0.09-2.9,1.14-2.94,3.09c-0.03,1.3,0.06,2.61,0,3.91c-0.09,1.93-0.92,3.09-2.83,3.33
		c-1.97,0.24-4,0.22-5.97,0.04c-1.79-0.16-2.88-1.35-3.07-3.18c-0.21-1.99-0.46-3.98-0.51-5.98c-0.09-3.15-0.02-6.31-0.02-9.47
		C299.74,244.6,299.74,244.6,299.75,244.6z M318.14,238.36c0-0.02,0-0.05,0-0.07c-0.55-0.03-1.1-0.09-1.65-0.09
		c-0.55,0-1.1,0.02-1.65,0.1c-1.83,0.27-2.7,1.14-2.69,2.64c0.02,1.82,0.83,3,2.63,3.04c2.64,0.06,5.3-0.07,7.92-0.39
		c1.77-0.22,2.92-1.54,2.84-2.64c-0.08-1.13-1.31-2.12-3.07-2.46c-0.29-0.06-0.59-0.11-0.89-0.11
		C320.44,238.36,319.29,238.36,318.14,238.36z"/>
	<path class="st1" d="M415.73,262.75c-0.65,0-1.3-0.01-1.95,0c-2.41,0.03-4.4-0.82-5.89-2.76c-0.52-0.67-1.09-1.31-1.6-2
		c-1.19-1.63-2.82-2.38-4.8-2.35c-5.01,0.07-10.03,0.1-15.03,0.36c-1.17,0.06-2.36,0.9-3.41,1.58c-0.64,0.41-1.1,1.17-1.52,1.84
		c-1.78,2.8-4.32,4.03-7.6,3.94c-1.7-0.05-3.43,0.19-5.1-0.02c-1.04-0.13-2.33-0.59-2.94-1.36c-0.82-1.02,0.07-2.19,0.81-3.09
		c1.39-1.71,2.86-3.35,4.29-5.03c4.8-5.64,9.63-11.27,14.4-16.94c1.93-2.3,3.74-4.7,5.64-7.03c1.91-2.33,3.93-2.32,5.88,0
		c0.61,0.73,1.13,1.53,1.73,2.27c5.71,7.1,11.42,14.19,17.15,21.27c1.57,1.95,3.27,3.8,4.83,5.75c1.38,1.73,0.88,3.05-1.28,3.39
		c-1.18,0.18-2.39,0.15-3.59,0.22C415.73,262.79,415.73,262.77,415.73,262.75z M394.4,249.62c0-0.03,0-0.07,0-0.1
		c1,0,2,0.09,2.99-0.02c1.89-0.2,2.63-1.64,1.51-3.19c-0.92-1.28-2.03-2.5-3.29-3.43c-0.61-0.45-2.05-0.58-2.59-0.16
		c-1.35,1.04-2.57,2.37-3.54,3.78c-0.95,1.39-0.36,2.48,1.35,2.81C391.99,249.55,393.2,249.53,394.4,249.62z"/>
	<path class="st1" d="M479.72,263.22c-2.55-0.15-5.11-0.16-7.64-0.47c-6.03-0.73-11.4-2.96-15.69-7.42
		c-3.57-3.71-4.33-8.21-3.17-12.98c0.96-3.93,4.03-6.38,7.27-8.46c5.14-3.31,10.89-4.71,16.94-5.03c4.95-0.26,9.79,0.33,14.53,1.81
		c3.21,1,4.69,4.76,2.89,7.62c-0.84,1.34-2.1,1.27-3.33,0.79c-6.94-2.72-13.98-2.68-21.1-0.92c-3.22,0.8-5.52,2.74-7,5.68
		c-0.85,1.68-0.91,3.37,0.09,5.02c1.24,2.06,2.83,3.62,5.16,4.59c6.92,2.87,13.77,3.02,20.74,0.22c4.29-1.73,6.03-0.41,5.91,4.22
		c-0.05,2.02-0.94,3.41-3.08,3.9c-2.67,0.61-5.42,0.94-8.15,1.26c-1.43,0.16-2.9,0.03-4.36,0.03
		C479.73,263.13,479.73,263.18,479.72,263.22z"/>
	<path class="st1" d="M763.52,263.31c-3.29-0.29-6.65-0.24-9.85-0.93c-6.77-1.45-12.67-4.41-15.99-10.99c-2.3-4.55-1.5-9.59,2-13.33
		c4.06-4.34,8.91-7,14.81-8.21c7.06-1.45,13.91-1.23,20.77,0.77c2.19,0.64,3.39,1.97,3.58,4.1c0.33,3.61-1.65,5.06-5.09,3.92
		c-6.86-2.27-13.8-2.27-20.67-0.07c-1.46,0.47-2.89,1.48-3.98,2.59c-3.63,3.69-2.57,9.19,2.1,11.54c7,3.52,14.19,4.11,21.46,0.99
		c4.57-1.96,5.56-0.04,5.91,3.75c0.23,2.45-1.14,4.19-3.99,4.7c-2.6,0.47-5.26,0.68-7.9,0.93c-1.04,0.1-2.1,0.02-3.15,0.02
		C763.54,263.17,763.53,263.24,763.52,263.31z"/>
	<path class="st1" d="M600.23,246.31c0-4.06-0.03-8.12,0.01-12.18c0.03-3.6,1.51-4.71,5.06-4.62c6.76,0.18,13.53,0.11,20.29,0.15
		c1.3,0.01,2.61-0.04,3.91,0.04c2.31,0.15,3.8,1.7,3.78,3.84c-0.02,2.3-1.32,3.67-3.8,3.71c-4.56,0.07-9.12,0.02-13.68,0.02
		c-0.5,0-1-0.02-1.5,0c-2.83,0.12-4.1,1.19-4.14,3.49c-0.05,2.76,1.18,4.11,4.13,4.19c3.76,0.1,7.52,0.02,11.27,0.03
		c1.05,0,2.11-0.02,3.15,0.07c1.9,0.16,3.16,1.32,3.31,2.92c0.18,1.86-0.82,3.24-2.81,3.67c-0.97,0.21-1.99,0.27-2.98,0.27
		c-4.01,0.02-8.02-0.03-12.03,0c-2.97,0.02-4.06,1.18-4.05,4.16c0.01,1,0.05,2,0.03,3.01c-0.04,2.24-0.83,3.19-3.08,3.5
		c-1.18,0.16-2.4,0.22-3.59,0.15c-2.18-0.12-3.27-1.28-3.29-3.49c-0.04-4.31-0.01-8.62-0.01-12.93
		C600.22,246.31,600.22,246.31,600.23,246.31z"/>
	<path class="st1" d="M690.45,246.52c0,4.06,0.02,8.12-0.01,12.18c-0.02,2.88-0.97,3.88-3.85,4.03c-1.15,0.06-2.31,0.08-3.45-0.04
		c-2-0.21-2.97-1.22-3.11-3.22c-0.1-1.3-0.04-2.6-0.04-3.91c0-6.36-0.01-12.73,0.01-19.09c0-1.2,0.08-2.4,0.2-3.6
		c0.21-2.08,1.02-3.07,3.07-3.25c1.58-0.14,3.25-0.12,4.76,0.27c0.83,0.21,1.69,1.24,2.04,2.1c0.41,1.02,0.35,2.26,0.36,3.4
		c0.04,3.71,0.01,7.42,0.01,11.13C690.44,246.52,690.44,246.52,690.45,246.52z"/>
	<path class="st1" d="M542.23,246.62c0-3.75-0.02-7.51,0.01-11.26c0.01-0.95,0.09-1.9,0.24-2.84c0.25-1.49,1.2-2.5,2.67-2.67
		c1.53-0.18,3.1-0.19,4.63-0.03c1.54,0.16,2.53,1.37,2.63,3.02c0.1,1.59,0.05,3.19,0.07,4.79c0.06,6.55,0.12,13.11,0.18,19.66
		c0.01,0.7,0.02,1.41-0.05,2.1c-0.2,1.89-1.02,2.89-2.87,3.11c-1.52,0.18-3.1,0.18-4.62-0.01c-1.93-0.24-2.88-1.45-2.9-3.41
		c-0.04-4.15-0.01-8.31-0.01-12.46C542.22,246.62,542.23,246.62,542.23,246.62z"/>
</g>
</svg>
